# xmcd
#
# Track frame offsets: 
#        300
#        26888
#        51596
#        72976
#        94467
#        110444
#        126769
#        154944
#        175641
#        189487
#        215915
#
# Disc length: 3136 seconds
#
# Revision: 1
# Processed by: cddbd v1.5.2PL0 Copyright (c) Steve Scherf et al.
# Submitted via: ExactAudioCopy v1.0b1
#
DISCID=aa0c3c0b
DTITLE=Toscho - Back By Popular Demand
DYEAR=2001
DGENRE=R&B
TTITLE0=A place to rest
TTITLE1=Chanel No. 5
TTITLE2=Back by popular demand
TTITLE3=Gimme your number
TTITLE4=Bo Diddely's groove
TTITLE5=Kidney stew
TTITLE6=Forgotten mines
TTITLE7=Love her with a feelin'
TTITLE8=One good reason
TTITLE9=Tears on a postcard
TTITLE10=Tappin' my feet
EXTD=
EXTT0=
EXTT1=
EXTT2=
EXTT3=
EXTT4=
EXTT5=
EXTT6=
EXTT7=
EXTT8=
EXTT9=
EXTT10=
PLAYORDER=
